<?xml version="1.0" encoding="UTF-8"?>
<!DOCTYPE svg PUBLIC "-//W3C//DTD SVG 1.1//EN" "http://www.w3.org/Graphics/SVG/1.1/DTD/svg11.dtd">
<svg xmlns="http://www.w3.org/2000/svg" version="1.1" width="983px" height="392px" style="shape-rendering:geometricPrecision; text-rendering:geometricPrecision; image-rendering:optimizeQuality; fill-rule:evenodd; clip-rule:evenodd" xmlns:xlink="http://www.w3.org/1999/xlink">
<g><path style="opacity:0.998" fill="#10afef" d="M 118.5,-0.5 C 130.167,-0.5 141.833,-0.5 153.5,-0.5C 182.415,5.2501 207.582,18.2501 229,38.5C 229.667,39.5 229.667,40.5 229,41.5C 215.42,57.6554 205.753,75.9887 200,96.5C 177.696,62.0622 146.862,51.2288 107.5,64C 80.5445,76.9621 64.0445,98.1288 58,127.5C 55.7793,166.57 72.2793,194.403 107.5,211C 148.727,223.494 180.894,211.661 204,175.5C 209.573,197.091 219.407,216.424 233.5,233.5C 214.198,254.227 190.531,267.727 162.5,274C 92.7431,282.878 41.9098,256.378 10,194.5C 5.86101,182.929 2.36101,171.263 -0.5,159.5C -0.5,144.833 -0.5,130.167 -0.5,115.5C 11.1017,61.4102 42.7684,24.9102 94.5,6C 102.691,4.09621 110.691,1.92954 118.5,-0.5 Z"/></g>
<g><path style="opacity:0.998" fill="#0faeef" d="M 345.5,-0.5 C 360.167,-0.5 374.833,-0.5 389.5,-0.5C 451.318,13.151 489.485,50.8176 504,112.5C 504.701,125.536 505.701,138.536 507,151.5C 514.561,184.727 534.728,205.893 567.5,215C 584.702,218.289 601.369,216.623 617.5,210C 655.063,189.59 669.563,158.09 661,115.5C 648.15,79.8806 622.65,60.8806 584.5,58.5C 569.658,58.7244 555.991,62.8911 543.5,71C 537.958,76.2105 532.125,81.0438 526,85.5C 522.339,90.4136 518.672,95.4136 515,100.5C 509.119,79.1658 499.619,59.6658 486.5,42C 489.887,38.1225 493.554,34.4559 497.5,31C 518.493,14.504 542.16,4.00395 568.5,-0.5C 579.167,-0.5 589.833,-0.5 600.5,-0.5C 662.112,10.5967 701.945,46.2633 720,106.5C 731.053,168.262 711.553,217.262 661.5,253.5C 603.347,286.946 547.68,283.446 494.5,243C 489.886,237.263 484.719,232.097 479,227.5C 477.336,224.678 475.503,222.011 473.5,219.5C 473.715,217.821 473.048,216.821 471.5,216.5C 457.539,196.133 449.373,173.466 447,148.5C 449.067,110.605 433.567,82.938 400.5,65.5C 400.027,64.0937 399.027,63.427 397.5,63.5C 360.846,52.2266 330.012,60.8932 305,89.5C 285.429,117.711 283.763,147.044 300,177.5C 319.494,207.16 346.994,219.994 382.5,216C 396.452,212.193 408.785,205.526 419.5,196C 425.129,189.872 430.129,183.372 434.5,176.5C 435.167,177.5 435.833,178.5 436.5,179.5C 441.61,197.661 450.11,213.994 462,228.5C 462.851,230.592 463.518,232.592 464,234.5C 431.146,267.784 391.313,280.951 344.5,274C 291.337,262.501 255.17,231.334 236,180.5C 219.627,118.77 235.46,67.4363 283.5,26.5C 302.269,12.9849 322.935,3.98487 345.5,-0.5 Z"/></g>
<g><path style="opacity:0.998" fill="#12afef" d="M 848.5,-0.5 C 858.833,-0.5 869.167,-0.5 879.5,-0.5C 927.71,8.35 960.21,35.6833 977,81.5C 978.867,89.6248 980.7,97.6248 982.5,105.5C 982.5,114.5 982.5,123.5 982.5,132.5C 976.286,171.301 956.953,201.301 924.5,222.5C 888.375,241.721 851.375,243.554 813.5,228C 809.98,225.802 806.48,223.635 803,221.5C 802.667,231.167 802.333,240.833 802,250.5C 796.508,254.494 790.674,257.828 784.5,260.5C 784.335,264.182 784.501,267.848 785,271.5C 787.459,273.805 790.126,275.805 793,277.5C 793.667,283.167 793.667,288.833 793,294.5C 791.622,296.213 789.955,297.547 788,298.5C 787.333,304.5 787.333,310.5 788,316.5C 789.667,317.167 791.333,317.833 793,318.5C 794.684,326.451 793.184,333.618 788.5,340C 791.965,342.463 795.131,345.296 798,348.5C 798.667,352.5 798.667,356.5 798,360.5C 796.488,361.257 795.154,362.257 794,363.5C 786.686,373.31 778.853,382.644 770.5,391.5C 769.167,391.5 767.833,391.5 766.5,391.5C 766.5,322.833 766.5,254.167 766.5,185.5C 763.005,184.094 759.838,184.76 757,187.5C 756.667,251.5 756.333,315.5 756,379.5C 752.916,376.075 749.583,373.075 746,370.5C 745.012,278.798 745.346,187.131 747,95.5C 760.665,41.9972 794.499,9.99716 848.5,-0.5 Z M 860.5,48.5 C 892.076,49.5216 914.576,64.1883 928,92.5C 940.223,132.845 928.056,163.012 891.5,183C 850.659,196.148 820.159,183.981 800,146.5C 786.997,105.04 799.497,74.2064 837.5,54C 845.185,51.6607 852.851,49.8273 860.5,48.5 Z"/></g>
<g><path style="opacity:0.329" fill="#92d8f7" d="M 397.5,63.5 C 399.027,63.427 400.027,64.0937 400.5,65.5C 398.973,65.573 397.973,64.9063 397.5,63.5 Z"/></g>
<g><path style="opacity:0.38" fill="#94dbf8" d="M 434.5,176.5 C 434.56,175.957 434.893,175.624 435.5,175.5C 436.429,176.689 436.762,178.022 436.5,179.5C 435.833,178.5 435.167,177.5 434.5,176.5 Z"/></g>
<g><path style="opacity:0.788" fill="#97d5f7" d="M 471.5,216.5 C 473.048,216.821 473.715,217.821 473.5,219.5C 472.599,218.71 471.932,217.71 471.5,216.5 Z"/></g>
<g><path style="opacity:0.995" fill="#17b0ef" d="M 358.5,292.5 C 359.388,295.054 359.721,297.721 359.5,300.5C 359.5,302.5 359.5,304.5 359.5,306.5C 351.073,304.6 346.739,307.933 346.5,316.5C 349.625,317.479 352.958,317.813 356.5,317.5C 356.5,321.167 356.5,324.833 356.5,328.5C 352.958,328.187 349.625,328.521 346.5,329.5C 346.5,342.5 346.5,355.5 346.5,368.5C 341.167,368.5 335.833,368.5 330.5,368.5C 330.829,355.323 330.495,342.323 329.5,329.5C 327.167,329.5 324.833,329.5 322.5,329.5C 322.5,325.167 322.5,320.833 322.5,316.5C 324.833,316.5 327.167,316.5 329.5,316.5C 329.866,297.464 339.533,289.464 358.5,292.5 Z"/></g>
<g><path style="opacity:0.984" fill="#17afef" d="M 215.5,317.5 C 222.354,317.176 229.021,317.509 235.5,318.5C 229.633,325.021 223.633,331.521 217.5,338C 224.719,347.712 231.719,357.546 238.5,367.5C 231.687,368.491 224.687,368.825 217.5,368.5C 213.749,361.995 209.749,355.662 205.5,349.5C 204.186,350.313 203.019,351.313 202,352.5C 201.501,358.157 201.334,363.824 201.5,369.5C 195.833,369.5 190.167,369.5 184.5,369.5C 184.5,344.167 184.5,318.833 184.5,293.5C 190.167,293.5 195.833,293.5 201.5,293.5C 201.333,307.837 201.5,322.171 202,336.5C 204.93,332.301 207.597,327.968 210,323.5C 212.068,321.604 213.901,319.604 215.5,317.5 Z"/></g>
<g><path style="opacity:0.277" fill="#87d8f7" d="M 358.5,292.5 C 359.748,293.334 360.415,294.667 360.5,296.5C 360.489,298.045 360.156,299.378 359.5,300.5C 359.721,297.721 359.388,295.054 358.5,292.5 Z"/></g>
<g><path style="opacity:0.986" fill="#2fb3f0" d="M 664.5,294.5 C 669.081,293.923 673.248,294.923 677,297.5C 680.579,305.672 677.912,310.339 669,311.5C 660.137,309.584 657.804,304.584 662,296.5C 662.995,295.934 663.828,295.267 664.5,294.5 Z"/></g>
<g><path style="opacity:0.992" fill="#22b1ef" d="M 408.5,296.5 C 426.796,292.414 440.963,298.08 451,313.5C 456.888,329.808 455.221,345.142 446,359.5C 431.943,371.411 416.443,373.578 399.5,366C 388.611,358.038 383.278,347.204 383.5,333.5C 383.551,315.467 391.885,303.134 408.5,296.5 Z M 415.5,309.5 C 417.857,309.337 420.19,309.503 422.5,310C 425.11,311.481 427.777,312.648 430.5,313.5C 432.13,316.675 433.63,320.009 435,323.5C 435.667,330.167 435.667,336.833 435,343.5C 430.231,354.977 422.064,358.477 410.5,354C 404.804,348.293 401.804,341.293 401.5,333C 402.185,325.981 404.518,319.648 408.5,314C 410.898,312.476 413.231,310.976 415.5,309.5 Z"/></g>
<g><path style="opacity:0.995" fill="#1bb0ef" d="M 50.5,337.5 C 50.427,339.027 51.0937,340.027 52.5,340.5C 55.2579,357.594 47.9245,367.094 30.5,369C 20.0899,369.808 9.75652,369.641 -0.5,368.5C -0.5,344.833 -0.5,321.167 -0.5,297.5C 10.8069,296.423 22.1402,296.257 33.5,297C 37.7597,298.132 41.7597,299.799 45.5,302C 54.6851,313.389 53.0184,322.723 40.5,330C 44.7973,331.305 48.1306,333.805 50.5,337.5 Z M 20.5,308.5 C 28.7792,307.961 32.9458,311.628 33,319.5C 32.5,321.333 31.3333,322.5 29.5,323C 24.9996,324.792 20.3329,325.625 15.5,325.5C 15.5,320.167 15.5,314.833 15.5,309.5C 17.4147,309.784 19.0813,309.451 20.5,308.5 Z M 15.5,337.5 C 22.4106,336.768 28.5772,338.434 34,342.5C 36.7004,349.815 34.2004,354.315 26.5,356C 22.8484,356.499 19.1817,356.665 15.5,356.5C 15.5,350.167 15.5,343.833 15.5,337.5 Z"/></g>
<g><path style="opacity:0.749" fill="#50c5f3" d="M 20.5,308.5 C 19.0813,309.451 17.4147,309.784 15.5,309.5C 15.5,314.833 15.5,320.167 15.5,325.5C 14.5111,320.025 14.1778,314.358 14.5,308.5C 16.5,308.5 18.5,308.5 20.5,308.5 Z"/></g>
<g><path style="opacity:0.992" fill="#23b1ef" d="M 109.5,367.5 C 107.19,368.164 104.69,368.497 102,368.5C 98.8949,368.389 96.0616,367.722 93.5,366.5C 93.631,365.761 93.4643,365.094 93,364.5C 84.1934,371.775 75.0267,372.275 65.5,366C 59.8489,359.142 59.0156,351.642 63,343.5C 70.9798,336.28 80.4798,332.613 91.5,332.5C 89.431,328.881 86.2643,327.214 82,327.5C 76.9544,327.759 72.2878,329.092 68,331.5C 66.4953,327.65 64.9953,323.817 63.5,320C 75.2425,314.971 87.2425,314.304 99.5,318C 104.897,322.164 108.063,327.664 109,334.5C 109.5,345.495 109.667,356.495 109.5,367.5 Z M 82.5,345.5 C 85.8333,345.5 89.1667,345.5 92.5,345.5C 92.6036,354.745 88.2702,358.412 79.5,356.5C 76.6685,351.821 77.6685,348.154 82.5,345.5 Z"/></g>
<g><path style="opacity:0.996" fill="#0caeef" d="M 171.5,332.5 C 171.5,344.5 171.5,356.5 171.5,368.5C 166.167,368.5 160.833,368.5 155.5,368.5C 155.828,357.654 155.494,346.987 154.5,336.5C 152.933,329.787 148.933,327.787 142.5,330.5C 140.722,332.264 139.389,334.264 138.5,336.5C 137.506,346.987 137.172,357.654 137.5,368.5C 132.167,368.5 126.833,368.5 121.5,368.5C 121.829,353.99 121.496,339.657 120.5,325.5C 120.5,322.833 120.5,320.167 120.5,317.5C 125.5,317.5 130.5,317.5 135.5,317.5C 135.216,319.415 135.549,321.081 136.5,322.5C 146.602,313.579 157.102,313.246 168,321.5C 169.759,325.009 170.926,328.675 171.5,332.5 Z"/></g>
<g><path style="opacity:0.991" fill="#24b1ef" d="M 283.5,315.5 C 294.233,314.222 303.733,316.888 312,323.5C 321.414,338.33 320.247,352.163 308.5,365C 296.531,372.035 284.531,372.202 272.5,365.5C 263.376,357.968 259.876,348.301 262,336.5C 263.512,331.907 265.512,327.574 268,323.5C 270.429,322.971 272.262,321.637 273.5,319.5C 276.938,318.155 280.271,316.821 283.5,315.5 Z M 289.5,327.5 C 292.959,328.148 295.793,329.815 298,332.5C 298.834,336.002 299.667,339.502 300.5,343C 299.667,346.498 298.834,349.998 298,353.5C 290.673,359.664 285.006,358.331 281,349.5C 280.131,347.419 279.631,345.253 279.5,343C 279.995,338.172 281.329,333.672 283.5,329.5C 285.786,329.405 287.786,328.738 289.5,327.5 Z"/></g>
<g><path style="opacity:0.987" fill="#15afef" d="M 464.5,321.5 C 464.5,320.167 464.5,318.833 464.5,317.5C 469.167,317.5 473.833,317.5 478.5,317.5C 478.5,318.833 478.5,320.167 478.5,321.5C 478.343,322.873 478.51,324.207 479,325.5C 479.717,324.956 480.217,324.289 480.5,323.5C 484.368,317.402 490.035,314.736 497.5,315.5C 497.5,320.833 497.5,326.167 497.5,331.5C 489.404,329.789 484.237,332.789 482,340.5C 481.5,350.161 481.334,359.828 481.5,369.5C 475.833,369.5 470.167,369.5 464.5,369.5C 464.5,353.5 464.5,337.5 464.5,321.5 Z"/></g>
<g><path style="opacity:0.993" fill="#23b1ef" d="M 524.5,315.5 C 549.785,314.386 560.618,326.386 557,351.5C 550.892,365.671 540.059,371.838 524.5,370C 507.34,366.494 499.84,355.994 502,338.5C 504.012,325.322 511.512,317.655 524.5,315.5 Z M 525.5,328.5 C 534.214,327.046 539.047,330.713 540,339.5C 541.176,346.976 538.676,352.809 532.5,357C 527.397,357.912 523.564,356.079 521,351.5C 519.16,345.819 519.16,340.153 521,334.5C 521.804,331.854 523.304,329.854 525.5,328.5 Z"/></g>
<g><path style="opacity:0.993" fill="#11afef" d="M 647.5,368.5 C 642.167,368.5 636.833,368.5 631.5,368.5C 631.828,357.986 631.494,347.653 630.5,337.5C 630.447,330.613 627.113,328.113 620.5,330C 618.383,331.731 616.883,333.898 616,336.5C 615.5,347.161 615.333,357.828 615.5,368.5C 610.167,368.5 604.833,368.5 599.5,368.5C 599.828,356.988 599.495,345.654 598.5,334.5C 596.752,329.818 593.419,328.318 588.5,330C 586.641,331.558 585.141,333.391 584,335.5C 583.5,346.495 583.333,357.495 583.5,368.5C 578.167,368.5 572.833,368.5 567.5,368.5C 567.5,351.5 567.5,334.5 567.5,317.5C 572.167,317.5 576.833,317.5 581.5,317.5C 581.5,318.167 581.5,318.833 581.5,319.5C 581.281,320.675 581.614,321.675 582.5,322.5C 583.107,322.376 583.44,322.043 583.5,321.5C 587.308,317.279 592.141,315.279 598,315.5C 604.583,315.35 609.583,318.017 613,323.5C 620.671,315.167 629.838,313.334 640.5,318C 641.641,320.308 643.308,322.141 645.5,323.5C 646.213,325.776 646.713,328.109 647,330.5C 647.5,343.162 647.667,355.829 647.5,368.5 Z"/></g>
<g><path style="opacity:0.992" fill="#22b1ef" d="M 734.5,333.5 C 734.5,345.167 734.5,356.833 734.5,368.5C 729.193,369.026 724.193,368.36 719.5,366.5C 719.631,365.761 719.464,365.094 719,364.5C 708.692,372.798 698.692,372.465 689,363.5C 683.342,350.225 687.175,341.058 700.5,336C 706.054,334.311 711.721,333.144 717.5,332.5C 716.405,330.38 714.739,328.88 712.5,328C 705.664,327.368 699.164,328.534 693,331.5C 691.883,327.512 691.216,323.512 691,319.5C 702.296,314.925 713.796,314.425 725.5,318C 731.202,321.617 734.202,326.783 734.5,333.5 Z M 708.5,345.5 C 711.833,345.5 715.167,345.5 718.5,345.5C 718.622,354.724 714.289,358.391 705.5,356.5C 703.003,351.977 704.003,348.311 708.5,345.5 Z"/></g>
<g><path style="opacity:0.251" fill="#85d7f7" d="M 120.5,317.5 C 125.64,316.512 130.974,316.179 136.5,316.5C 136.5,318.5 136.5,320.5 136.5,322.5C 135.549,321.081 135.216,319.415 135.5,317.5C 130.5,317.5 125.5,317.5 120.5,317.5 Z"/></g>
<g><path style="opacity:0.249" fill="#86d7f7" d="M 215.5,317.5 C 222.344,316.181 229.344,316.181 236.5,317.5C 236.376,318.107 236.043,318.44 235.5,318.5C 229.021,317.509 222.354,317.176 215.5,317.5 Z"/></g>
<g><path style="opacity:0.249" fill="#81d6f7" d="M 478.5,317.5 C 473.833,317.5 469.167,317.5 464.5,317.5C 464.5,318.833 464.5,320.167 464.5,321.5C 463.549,320.081 463.216,318.415 463.5,316.5C 468.695,316.179 473.695,316.513 478.5,317.5 Z"/></g>
<g><path style="opacity:0.244" fill="#97dcf8" d="M 581.5,317.5 C 576.833,317.5 572.167,317.5 567.5,317.5C 567.5,334.5 567.5,351.5 567.5,368.5C 572.833,368.5 578.167,368.5 583.5,368.5C 578.025,369.489 572.358,369.822 566.5,369.5C 566.5,351.833 566.5,334.167 566.5,316.5C 571.695,316.179 576.695,316.513 581.5,317.5 Z"/></g>
<g><path style="opacity:0.435" fill="#83d7f7" d="M 346.5,316.5 C 350.167,316.5 353.833,316.5 357.5,316.5C 357.5,320.833 357.5,325.167 357.5,329.5C 353.833,329.5 350.167,329.5 346.5,329.5C 349.625,328.521 352.958,328.187 356.5,328.5C 356.5,324.833 356.5,321.167 356.5,317.5C 352.958,317.813 349.625,317.479 346.5,316.5 Z"/></g>
<g><path style="opacity:0.978" fill="#00aeef" d="M 660.5,317.5 C 666.167,317.5 671.833,317.5 677.5,317.5C 677.5,334.5 677.5,351.5 677.5,368.5C 671.833,368.5 666.167,368.5 660.5,368.5C 660.5,351.5 660.5,334.5 660.5,317.5 Z"/></g>
<g><path style="opacity:0.063" fill="#ace3f9" d="M 660.5,317.5 C 666.31,316.51 672.31,316.177 678.5,316.5C 678.5,334.167 678.5,351.833 678.5,369.5C 672.31,369.823 666.31,369.49 660.5,368.5C 666.167,368.5 671.833,368.5 677.5,368.5C 677.5,351.5 677.5,334.5 677.5,317.5C 671.833,317.5 666.167,317.5 660.5,317.5 Z"/></g>
<g><path style="opacity:0.196" fill="#93dbf8" d="M 581.5,319.5 C 582.167,320.167 582.833,320.833 583.5,321.5C 583.44,322.043 583.107,322.376 582.5,322.5C 581.614,321.675 581.281,320.675 581.5,319.5 Z"/></g>
<g><path style="opacity:0.2" fill="#8ad9f7" d="M 478.5,321.5 C 479.167,322.167 479.833,322.833 480.5,323.5C 480.217,324.289 479.717,324.956 479,325.5C 478.51,324.207 478.343,322.873 478.5,321.5 Z"/></g>
<g><path style="opacity:0.498" fill="#80d6f7" d="M 329.5,329.5 C 330.495,342.323 330.829,355.323 330.5,368.5C 335.833,368.5 341.167,368.5 346.5,368.5C 341.025,369.489 335.358,369.822 329.5,369.5C 329.5,356.167 329.5,342.833 329.5,329.5 Z"/></g>
<g><path style="opacity:0.476" fill="#80d6f7" d="M 171.5,332.5 C 172.495,344.655 172.829,356.989 172.5,369.5C 166.5,369.5 160.5,369.5 154.5,369.5C 154.5,358.5 154.5,347.5 154.5,336.5C 155.494,346.987 155.828,357.654 155.5,368.5C 160.833,368.5 166.167,368.5 171.5,368.5C 171.5,356.5 171.5,344.5 171.5,332.5 Z"/></g>
<g><path style="opacity:0.259" fill="#80d6f7" d="M 120.5,325.5 C 121.496,339.657 121.829,353.99 121.5,368.5C 126.833,368.5 132.167,368.5 137.5,368.5C 137.172,357.654 137.506,346.987 138.5,336.5C 138.5,347.5 138.5,358.5 138.5,369.5C 132.5,369.5 126.5,369.5 120.5,369.5C 120.5,354.833 120.5,340.167 120.5,325.5 Z"/></g>
<g><path style="opacity:0.261" fill="#80d6f7" d="M 630.5,337.5 C 631.494,347.653 631.828,357.986 631.5,368.5C 636.833,368.5 642.167,368.5 647.5,368.5C 642.025,369.489 636.358,369.822 630.5,369.5C 630.5,358.833 630.5,348.167 630.5,337.5 Z"/></g>
<g><path style="opacity:0.325" fill="#92d8f7" d="M 50.5,337.5 C 51.9063,337.973 52.573,338.973 52.5,340.5C 51.0937,340.027 50.427,339.027 50.5,337.5 Z"/></g>
<g><path style="opacity:0.125" fill="#8bd9f7" d="M 93.5,366.5 C 96.0616,367.722 98.8949,368.389 102,368.5C 104.69,368.497 107.19,368.164 109.5,367.5C 110.043,367.56 110.376,367.893 110.5,368.5C 104.872,369.495 99.2055,369.829 93.5,369.5C 93.5,368.5 93.5,367.5 93.5,366.5 Z"/></g>
<g><path style="opacity:0.125" fill="#87d8f7" d="M 238.5,367.5 C 239.043,367.56 239.376,367.893 239.5,368.5C 232.01,369.819 224.677,369.819 217.5,368.5C 224.687,368.825 231.687,368.491 238.5,367.5 Z"/></g>
<g><path style="opacity:0.125" fill="#98ddf8" d="M 598.5,334.5 C 599.495,345.654 599.828,356.988 599.5,368.5C 604.833,368.5 610.167,368.5 615.5,368.5C 610.025,369.489 604.358,369.822 598.5,369.5C 598.5,357.833 598.5,346.167 598.5,334.5 Z"/></g>
<g><path style="opacity:0.125" fill="#99ddf8" d="M 734.5,333.5 C 735.495,345.322 735.828,357.322 735.5,369.5C 730.167,369.5 724.833,369.5 719.5,369.5C 719.5,368.5 719.5,367.5 719.5,366.5C 724.193,368.36 729.193,369.026 734.5,368.5C 734.5,356.833 734.5,345.167 734.5,333.5 Z"/></g>
</svg>
