<?xml version="1.0" encoding="UTF-8"?>
<!DOCTYPE svg PUBLIC "-//W3C//DTD SVG 1.1//EN" "http://www.w3.org/Graphics/SVG/1.1/DTD/svg11.dtd">
<svg xmlns="http://www.w3.org/2000/svg" version="1.1" width="225px" height="225px" style="shape-rendering:geometricPrecision; text-rendering:geometricPrecision; image-rendering:optimizeQuality; fill-rule:evenodd; clip-rule:evenodd" xmlns:xlink="http://www.w3.org/1999/xlink">
<g><path style="opacity:1" fill="#fcfdfd" d="M -0.5,-0.5 C 33.8333,-0.5 68.1667,-0.5 102.5,-0.5C 53.6616,6.35011 20.8283,33.0168 4,79.5C 1.89335,87.1966 0.393347,94.8632 -0.5,102.5C -0.5,68.1667 -0.5,33.8333 -0.5,-0.5 Z"/></g>
<g><path style="opacity:1" fill="#fcfdfd" d="M 123.5,-0.5 C 157.167,-0.5 190.833,-0.5 224.5,-0.5C 224.5,32.5 224.5,65.5 224.5,98.5C 221.305,79.1109 213.972,61.4442 202.5,45.5C 182.61,19.3113 156.276,3.97794 123.5,-0.5 Z"/></g>
<g><path style="opacity:1" fill="#4b86c7" d="M 102.5,-0.5 C 109.5,-0.5 116.5,-0.5 123.5,-0.5C 156.276,3.97794 182.61,19.3113 202.5,45.5C 178.418,68.0806 154.751,91.2472 131.5,115C 130.906,115.464 130.239,115.631 129.5,115.5C 134.599,109.135 137.266,101.802 137.5,93.5C 139.459,92.2519 140.959,90.5852 142,88.5C 143.075,84.23 143.575,79.8967 143.5,75.5C 142.167,75.5 140.833,75.5 139.5,75.5C 140.992,46.7367 127.659,35.5701 99.5,42C 91.6961,45.7452 86.8627,51.9118 85,60.5C 84.5007,65.4889 84.3341,70.4889 84.5,75.5C 83.1667,75.5 81.8333,75.5 80.5,75.5C 80.3054,79.9152 80.8054,84.2486 82,88.5C 83,90.8333 84.6667,92.5 87,93.5C 86.6205,102.006 89.2872,109.34 95,115.5C 95.6612,120.558 95.3279,125.558 94,130.5C 93.5348,131.931 92.7014,133.097 91.5,134C 80.2972,138.62 69.2972,143.62 58.5,149C 49.3072,155.579 45.8072,164.412 48,175.5C 48.7083,176.381 49.5416,177.047 50.5,177.5C 78.3303,178.332 106.33,178.832 134.5,179C 120.5,193 106.5,207 92.5,221C 94.0664,221.608 95.3998,222.442 96.5,223.5C 55.9525,216.437 26.7858,194.437 9,157.5C 4.25197,145.782 1.0853,133.782 -0.5,121.5C -0.5,115.167 -0.5,108.833 -0.5,102.5C 0.393347,94.8632 1.89335,87.1966 4,79.5C 20.8283,33.0168 53.6616,6.35011 102.5,-0.5 Z"/></g>
<g><path style="opacity:1" fill="#fcfcfd" d="M 129.5,115.5 C 128.357,118.976 128.19,122.642 129,126.5C 129.229,129.458 130.396,131.958 132.5,134C 141.821,137.999 151.155,141.999 160.5,146C 173.286,152.239 178.286,162.239 175.5,176C 133.894,177.483 92.2273,177.983 50.5,177.5C 49.5416,177.047 48.7083,176.381 48,175.5C 45.8072,164.412 49.3072,155.579 58.5,149C 69.2972,143.62 80.2972,138.62 91.5,134C 92.7014,133.097 93.5348,131.931 94,130.5C 95.3279,125.558 95.6612,120.558 95,115.5C 89.2872,109.34 86.6205,102.006 87,93.5C 84.6667,92.5 83,90.8333 82,88.5C 80.8054,84.2486 80.3054,79.9152 80.5,75.5C 81.8333,75.5 83.1667,75.5 84.5,75.5C 84.3341,70.4889 84.5007,65.4889 85,60.5C 86.8627,51.9118 91.6961,45.7452 99.5,42C 127.659,35.5701 140.992,46.7367 139.5,75.5C 140.833,75.5 142.167,75.5 143.5,75.5C 143.575,79.8967 143.075,84.23 142,88.5C 140.959,90.5852 139.459,92.2519 137.5,93.5C 137.266,101.802 134.599,109.135 129.5,115.5 Z"/></g>
<g><path style="opacity:1" fill="#4b86c7" d="M 202.5,45.5 C 213.972,61.4442 221.305,79.1109 224.5,98.5C 224.5,105.167 224.5,111.833 224.5,118.5C 220.065,163.1 197.732,195.267 157.5,215C 144.861,220.244 131.861,223.411 118.5,224.5C 113.167,224.5 107.833,224.5 102.5,224.5C 100.735,223.539 98.7354,223.205 96.5,223.5C 95.3998,222.442 94.0664,221.608 92.5,221C 106.5,207 120.5,193 134.5,179C 106.33,178.832 78.3303,178.332 50.5,177.5C 92.2273,177.983 133.894,177.483 175.5,176C 178.286,162.239 173.286,152.239 160.5,146C 151.155,141.999 141.821,137.999 132.5,134C 130.396,131.958 129.229,129.458 129,126.5C 128.19,122.642 128.357,118.976 129.5,115.5C 130.239,115.631 130.906,115.464 131.5,115C 154.751,91.2472 178.418,68.0806 202.5,45.5 Z"/></g>
<g><path style="opacity:1" fill="#fcfdfd" d="M -0.5,121.5 C 1.0853,133.782 4.25197,145.782 9,157.5C 26.7858,194.437 55.9525,216.437 96.5,223.5C 98.7354,223.205 100.735,223.539 102.5,224.5C 68.1667,224.5 33.8333,224.5 -0.5,224.5C -0.5,190.167 -0.5,155.833 -0.5,121.5 Z"/></g>
<g><path style="opacity:1" fill="#fcfcfd" d="M 224.5,118.5 C 224.5,153.833 224.5,189.167 224.5,224.5C 189.167,224.5 153.833,224.5 118.5,224.5C 131.861,223.411 144.861,220.244 157.5,215C 197.732,195.267 220.065,163.1 224.5,118.5 Z"/></g>
</svg>
