<svg id="Layer_1" data-name="Layer 1" xmlns="http://www.w3.org/2000/svg" viewBox="0 0 512 512"><defs><style>.cls-1{fill:#141f38;}</style></defs><title>phone-data-transfer-outline</title><path class="cls-1" d="M124.72,118.15H45.95A46,46,0,0,0,0,164.1V347.9a46,46,0,0,0,45.95,45.95h78.77a46,46,0,0,0,45.95-45.95V164.1A46,46,0,0,0,124.72,118.15ZM157.54,347.9a32.86,32.86,0,0,1-32.82,32.82H45.95A32.86,32.86,0,0,1,13.13,347.9V164.1a32.86,32.86,0,0,1,32.82-32.82h78.77a32.86,32.86,0,0,1,32.82,32.82Z"/><circle class="cls-1" cx="85.33" cy="334.77" r="13.13"/><path class="cls-1" d="M98.46,170.67H72.21a6.56,6.56,0,0,0,0,13.13H98.46a6.56,6.56,0,0,0,0-13.13Z"/><path class="cls-1" d="M466.05,118.15H387.28a46,46,0,0,0-45.95,45.95V347.9a46,46,0,0,0,45.95,45.95h78.77A46,46,0,0,0,512,347.9V164.1A46,46,0,0,0,466.05,118.15ZM498.87,347.9a32.86,32.86,0,0,1-32.82,32.82H387.28a32.86,32.86,0,0,1-32.82-32.82V164.1a32.86,32.86,0,0,1,32.82-32.82h78.77a32.86,32.86,0,0,1,32.82,32.82Z"/><circle class="cls-1" cx="426.67" cy="334.77" r="13.13"/><path class="cls-1" d="M439.79,170.67H413.54a6.56,6.56,0,0,0,0,13.13h26.26a6.56,6.56,0,0,0,0-13.13Z"/><path class="cls-1" d="M216.62,236.31h78.77A6.56,6.56,0,0,0,300,225.1l-26.26-26.26a6.56,6.56,0,0,0-9.28,9.28l15.05,15.05H216.62a6.56,6.56,0,1,0,0,13.13Z"/><path class="cls-1" d="M295.38,262.56H216.62A6.56,6.56,0,0,0,212,273.77L238.23,300a6.56,6.56,0,0,0,9.28-9.28l-15.05-15.05h62.92a6.56,6.56,0,0,0,0-13.13Z"/></svg>